<svg width="36" height="36" viewBox="0 0 36 36" fill="none" xmlns="http://www.w3.org/2000/svg">
<rect width="36" height="36" rx="18" fill="#FAFAFA"/>
<path d="M13.9301 11.9804L17.0601 15.1104C17.5801 15.6304 18.4301 15.6304 18.9501 15.1104L22.0801 11.9804C22.9201 11.1404 22.3301 9.69043 21.1301 9.69043H14.8701C13.6801 9.69043 13.0801 11.1404 13.9301 11.9804Z" fill="#FF77D7"/>
<path d="M13.9301 25.02L17.0601 21.89C17.5801 21.37 18.4301 21.37 18.9501 21.89L22.0801 25.02C22.9201 25.86 22.3301 27.31 21.1301 27.31H14.8701C13.6801 27.31 13.0801 25.86 13.9301 25.02Z" fill="#FF77D7"/>
<path d="M8.15994 17.9301L10.45 14.3301C10.81 13.7601 11.61 13.6701 12.09 14.1501L15.69 17.7501C16.1 18.1601 16.1 18.8301 15.69 19.2401L12.09 22.8401C11.61 23.3201 10.82 23.2301 10.45 22.6601L8.15994 19.0601C7.94994 18.7201 7.94994 18.2801 8.15994 17.9301Z" fill="#FA6C12"/>
<path d="M27.84 17.9301L25.5499 14.3301C25.1899 13.7601 24.3899 13.6701 23.9099 14.1501L20.3099 17.7501C19.8999 18.1601 19.8999 18.8301 20.3099 19.2401L23.9099 22.8401C24.3899 23.3201 25.1799 23.2301 25.5499 22.6601L27.84 19.0601C28.05 18.7201 28.05 18.2801 27.84 17.9301Z" fill="#FA6C12"/>
</svg>
