<svg width="20" height="20" viewBox="0 0 20 20" fill="none" xmlns="http://www.w3.org/2000/svg">
<path d="M10.0001 1.6665C5.40841 1.6665 1.66675 5.40817 1.66675 9.99984C1.66675 14.5915 5.40841 18.3332 10.0001 18.3332C14.5917 18.3332 18.3334 14.5915 18.3334 9.99984C18.3334 5.40817 14.5917 1.6665 10.0001 1.6665ZM13.9834 8.08317L9.25841 12.8082C9.14175 12.9248 8.98342 12.9915 8.81675 12.9915C8.65008 12.9915 8.49175 12.9248 8.37508 12.8082L6.01675 10.4498C5.77508 10.2082 5.77508 9.80817 6.01675 9.5665C6.25841 9.32484 6.65841 9.32484 6.90008 9.5665L8.81675 11.4832L13.1001 7.19984C13.3417 6.95817 13.7417 6.95817 13.9834 7.19984C14.2251 7.4415 14.2251 7.83317 13.9834 8.08317Z" fill="#FA6C12"/>
</svg>
