<svg width="14" height="14" viewBox="0 0 14 14" fill="none" xmlns="http://www.w3.org/2000/svg">
<path d="M10.8533 5.02V4.18667C10.8533 2.38667 10.42 0 6.66667 0C2.91333 0 2.48 2.38667 2.48 4.18667V5.02C0.613333 5.25333 0 6.2 0 8.52667V9.76667C0 12.5 0.833333 13.3333 3.56667 13.3333H9.76667C12.5 13.3333 13.3333 12.5 13.3333 9.76667V8.52667C13.3333 6.2 12.72 5.25333 10.8533 5.02ZM6.66667 11.16C5.55333 11.16 4.65333 10.2533 4.65333 9.14667C4.65333 8.03333 5.56 7.13333 6.66667 7.13333C7.77333 7.13333 8.68 8.04 8.68 9.14667C8.68 10.26 7.78 11.16 6.66667 11.16ZM3.56667 4.96C3.51333 4.96 3.46667 4.96 3.41333 4.96V4.18667C3.41333 2.23333 3.96667 0.933333 6.66667 0.933333C9.36667 0.933333 9.92 2.23333 9.92 4.18667V4.96667C9.86667 4.96667 9.82 4.96667 9.76667 4.96667H3.56667V4.96Z" fill="url(#paint0_linear_109_252)"/>
<defs>
<linearGradient id="paint0_linear_109_252" x1="0" y1="6.66667" x2="13.3333" y2="6.66667" gradientUnits="userSpaceOnUse">
<stop stop-color="#FF77D7"/>
<stop offset="1" stop-color="#FA6C12"/>
</linearGradient>
</defs>
</svg>
