<svg width="20" height="20" viewBox="0 0 20 20" fill="none" xmlns="http://www.w3.org/2000/svg">
<path d="M9.99993 13.6078C8.00827 13.6078 6.3916 11.9911 6.3916 9.99945C6.3916 8.00778 8.00827 6.39111 9.99993 6.39111C11.9916 6.39111 13.6083 8.00778 13.6083 9.99945C13.6083 11.9911 11.9916 13.6078 9.99993 13.6078ZM9.99993 7.64111C8.69993 7.64111 7.6416 8.69945 7.6416 9.99945C7.6416 11.2994 8.69993 12.3578 9.99993 12.3578C11.2999 12.3578 12.3583 11.2994 12.3583 9.99945C12.3583 8.69945 11.2999 7.64111 9.99993 7.64111Z" fill="white"/>
<path d="M10.0001 17.5158C6.86681 17.5158 3.90848 15.6824 1.87515 12.4991C0.991813 11.1241 0.991813 8.88242 1.87515 7.49909C3.91681 4.31576 6.87515 2.48242 10.0001 2.48242C13.1251 2.48242 16.0835 4.31576 18.1168 7.49909C19.0001 8.87409 19.0001 11.1158 18.1168 12.4991C16.0835 15.6824 13.1251 17.5158 10.0001 17.5158ZM10.0001 3.73242C7.30848 3.73242 4.73348 5.34909 2.93348 8.17409C2.30848 9.14909 2.30848 10.8491 2.93348 11.8241C4.73348 14.6491 7.30848 16.2658 10.0001 16.2658C12.6918 16.2658 15.2668 14.6491 17.0668 11.8241C17.6918 10.8491 17.6918 9.14909 17.0668 8.17409C15.2668 5.34909 12.6918 3.73242 10.0001 3.73242Z" fill="white"/>
</svg>
