<svg viewBox="0 0 18.6094 18.6091" xmlns="http://www.w3.org/2000/svg" xmlns:xlink="http://www.w3.org/1999/xlink" width="18.609375" height="18.609131" fill="none" customFrame="#000000">
	<rect id="SVG" width="18.609118" height="18.609118" x="0.000000" y="0.000000" />
	<path id="Vector" d="M13.956 8.52898L13.956 4.65208C13.956 4.24079 13.7926 3.84635 13.5018 3.55553C13.211 3.2647 12.8165 3.10132 12.4053 3.10132C11.994 3.10132 11.5995 3.2647 11.3087 3.55553C11.0179 3.84635 10.8545 4.24079 10.8545 4.65208" fill-rule="nonzero" stroke="rgb(255,255,255)" stroke-linecap="round" stroke-linejoin="round" stroke-width="1.55075991" />
	<path id="Vector" d="M10.8544 7.75553L10.8544 3.10325C10.8544 2.69196 10.6911 2.29752 10.4002 2.0067C10.1094 1.71587 9.71498 1.55249 9.30369 1.55249C8.8924 1.55249 8.49796 1.71587 8.20714 2.0067C7.91631 2.29752 7.75293 2.69196 7.75293 3.10325L7.75293 4.65401" fill-rule="nonzero" stroke="rgb(255,255,255)" stroke-linecap="round" stroke-linejoin="round" stroke-width="1.55075991" />
	<path id="Vector" d="M7.75289 8.14129L7.75289 4.65208C7.75289 4.24079 7.5895 3.84635 7.29868 3.55553C7.00786 3.2647 6.61341 3.10132 6.20213 3.10132C5.79084 3.10132 5.3964 3.2647 5.10557 3.55553C4.81475 3.84635 4.65137 4.24079 4.65137 4.65208L4.65137 10.8551" fill-rule="nonzero" stroke="rgb(255,255,255)" stroke-linecap="round" stroke-linejoin="round" stroke-width="1.55075991" />
	<path id="Vector" d="M13.9557 6.20457C13.9557 5.79328 14.1191 5.39884 14.4099 5.10802C14.7007 4.81719 15.0952 4.65381 15.5065 4.65381C15.9178 4.65381 16.3122 4.81719 16.603 5.10802C16.8938 5.39884 17.0572 5.79328 17.0572 6.20457L17.0572 10.8568C17.0572 12.502 16.4037 14.0798 15.2404 15.2431C14.0771 16.4064 12.4993 17.0599 10.8542 17.0599L9.30343 17.0599C7.13237 17.0599 5.81422 16.3931 4.65891 15.2455L1.86754 12.4541C1.60076 12.1587 1.45782 11.7719 1.46831 11.374C1.47881 10.976 1.64194 10.5974 1.92392 10.3164C2.20591 10.0354 2.58515 9.8736 2.98313 9.86451C3.38111 9.85543 3.76735 9.99973 4.06186 10.2676L5.42653 11.6322" fill-rule="nonzero" stroke="rgb(255,255,255)" stroke-linecap="round" stroke-linejoin="round" stroke-width="1.55075991" />
</svg>
