<svg width="36" height="36" viewBox="0 0 36 36" fill="none" xmlns="http://www.w3.org/2000/svg">
<rect width="36" height="36" rx="18" fill="#FAFAFA"/>
<path d="M22.9238 10.5C27.1157 10.5002 30.5137 13.858 30.5137 18C30.5137 22.142 27.1156 25.4998 22.9238 25.5C21.0444 25.5 19.3256 24.8231 18 23.7051C16.6744 24.8231 14.9556 25.5 13.0762 25.5C8.88439 25.4998 5.48635 22.142 5.48633 18C5.48633 13.858 8.88438 10.5002 13.0762 10.5C14.9554 10.5 16.6744 11.1762 18 12.2939C19.3256 11.1762 21.0446 10.5 22.9238 10.5Z" fill="#FF77D7"/>
<path d="M22.9238 10.5C27.1157 10.5001 30.5137 13.858 30.5137 18C30.5137 22.142 27.1157 25.4999 22.9238 25.5C21.0443 25.5 19.3256 24.8231 18 23.7051C19.6311 22.3295 20.667 20.285 20.667 18C20.667 15.7147 19.6314 13.6696 18 12.2939C19.3256 11.1761 21.0445 10.5 22.9238 10.5Z" fill="#1EC756"/>
<path d="M17.9993 12.2935C19.6309 13.669 20.6671 15.7141 20.6672 17.9995C20.6672 20.2849 19.6308 22.3299 17.9993 23.7056C16.3683 22.3299 15.3333 20.2844 15.3333 17.9995C15.3334 15.7146 16.3682 13.669 17.9993 12.2935Z" fill="#FD4300"/>
</svg>
