<svg width="20" height="20" viewBox="0 0 20 20" fill="none" xmlns="http://www.w3.org/2000/svg">
<path d="M12.9635 12.1231L12.5839 12.5227C12.5839 12.5227 11.6817 13.4725 9.21925 10.8799C6.75676 8.28737 7.65891 7.33756 7.65891 7.33756L7.89793 7.08593C8.48675 6.46603 8.54225 5.47081 8.02853 4.74425L6.97771 3.25801C6.3419 2.35875 5.1133 2.23996 4.38454 3.0072L3.07654 4.38428C2.71519 4.76472 2.47304 5.25787 2.50241 5.80495C2.57753 7.20455 3.17559 10.2158 6.5128 13.7293C10.0517 17.4552 13.3723 17.6032 14.7302 17.4692C15.1597 17.4268 15.5332 17.1952 15.8342 16.8783L17.0181 15.632C17.8172 14.7907 17.5918 13.3485 16.5694 12.76L14.9773 11.8436C14.306 11.4572 13.4882 11.5707 12.9635 12.1231Z" fill="#9A9A9A"/>
<path d="M11.0509 1.56783C11.106 1.22709 11.4281 0.995946 11.7689 1.0511C11.79 1.05515 11.8579 1.06783 11.8934 1.07575C11.9645 1.09159 12.0637 1.11596 12.1874 1.15199C12.4347 1.22402 12.7802 1.3427 13.1949 1.5328C14.0251 1.91344 15.13 2.57927 16.2765 3.72577C17.423 4.87227 18.0888 5.97711 18.4694 6.80734C18.6595 7.22203 18.7782 7.56753 18.8502 7.81485C18.8862 7.93852 18.9106 8.03771 18.9265 8.10881C18.9344 8.14437 18.9402 8.17292 18.9442 8.19401L18.949 8.22001C19.0041 8.56072 18.7751 8.89622 18.4344 8.95139C18.0946 9.00639 17.7745 8.7763 17.718 8.43722C17.7163 8.42805 17.7115 8.40364 17.7064 8.38055C17.696 8.33439 17.6783 8.2612 17.6501 8.1644C17.5937 7.9708 17.4958 7.68302 17.3331 7.32829C17.0083 6.6197 16.4241 5.64121 15.3925 4.60965C14.361 3.5781 13.3825 2.99395 12.674 2.66909C12.3192 2.50645 12.0315 2.40851 11.8378 2.35211C11.741 2.32392 11.6194 2.296 11.5732 2.28572C11.234 2.2292 10.9959 1.9076 11.0509 1.56783Z" fill="#9A9A9A"/>
<path fill-rule="evenodd" clip-rule="evenodd" d="M11.239 4.44175C11.3339 4.10985 11.6798 3.91766 12.0117 4.01249L11.84 4.61345C12.0117 4.01249 12.0117 4.01249 12.0117 4.01249L12.013 4.01284L12.0142 4.01321L12.017 4.01401L12.0235 4.01595L12.04 4.02108C12.0525 4.0251 12.0682 4.03033 12.0869 4.03697C12.1243 4.05026 12.1738 4.06914 12.2345 4.09514C12.3559 4.14717 12.5217 4.22752 12.7255 4.34811C13.1334 4.58951 13.6902 4.9905 14.3444 5.64464C14.9985 6.29879 15.3995 6.8556 15.6409 7.2635C15.7615 7.46725 15.8418 7.63314 15.8939 7.75455C15.9199 7.81521 15.9388 7.86468 15.952 7.90211C15.9587 7.92081 15.9639 7.9365 15.968 7.94907L15.973 7.96556L15.975 7.97202L15.9758 7.9748L15.9761 7.97608C15.9761 7.97608 15.9765 7.97728 15.3755 8.14898L15.9765 7.97728C16.0714 8.30917 15.8791 8.65508 15.5473 8.74991C15.2182 8.84391 14.8753 8.65583 14.777 8.3291L14.774 8.32012C14.7695 8.3076 14.7604 8.28295 14.745 8.24695C14.7141 8.175 14.6582 8.0573 14.5652 7.90015C14.3794 7.5862 14.0438 7.11182 13.4605 6.52852C12.8772 5.94523 12.4028 5.60965 12.0889 5.42384C11.9317 5.33082 11.814 5.27491 11.742 5.24407C11.706 5.22865 11.6814 5.21945 11.6689 5.21501L11.6599 5.21193C11.3332 5.1137 11.145 4.77082 11.239 4.44175Z" fill="#9A9A9A"/>
</svg>
