<svg width="20" height="20" viewBox="0 0 20 20" fill="none" xmlns="http://www.w3.org/2000/svg">
<path d="M18.3336 6.50768V10.416H14.9336C14.8336 10.4077 14.6169 10.2827 14.5669 10.191L13.7003 8.54935C13.3586 7.89935 12.7669 7.53268 12.1336 7.56602C11.5003 7.59935 10.9586 8.02435 10.6836 8.71602L9.53365 11.5994L9.36699 11.166C8.95865 10.1077 7.79199 9.30768 6.64199 9.30768L1.66699 9.33268V6.50768C1.66699 3.47435 3.47532 1.66602 6.50865 1.66602H13.4919C16.5253 1.66602 18.3336 3.47435 18.3336 6.50768Z" fill="white"/>
<path d="M18.3336 13.4918V11.6668H14.9336C14.3753 11.6668 13.7169 11.2668 13.4586 10.7752L12.5919 9.13354C12.3586 8.69187 12.0253 8.71687 11.8419 9.17521L9.92532 14.0168C9.71699 14.5585 9.36699 14.5585 9.15032 14.0168L8.20032 11.6168C7.97532 11.0335 7.27532 10.5585 6.65032 10.5585L1.66699 10.5835V13.4918C1.66699 16.4752 3.41699 18.2752 6.35865 18.3252C6.45032 18.3335 6.55032 18.3335 6.64199 18.3335H13.3086C13.4336 18.3335 13.5586 18.3335 13.6753 18.3252C16.6003 18.2585 18.3336 16.4668 18.3336 13.4918Z" fill="white"/>
<path d="M1.6666 10.584V13.3423C1.64993 13.0756 1.6416 12.7923 1.6416 12.5006V10.584H1.6666Z" fill="white"/>
</svg>
