<svg width="20" height="20" viewBox="0 0 20 20" fill="none" xmlns="http://www.w3.org/2000/svg">
<path fill-rule="evenodd" clip-rule="evenodd" d="M2.09965 6.5183C1.66699 7.30875 1.66699 8.26226 1.66699 10.1693V11.4369C1.66699 14.6875 1.66699 16.3129 2.6433 17.3228C3.61961 18.3327 5.19095 18.3327 8.33365 18.3327H11.6669C14.8096 18.3327 16.381 18.3327 17.3573 17.3228C18.3336 16.3129 18.3336 14.6875 18.3336 11.4369V10.1693C18.3336 8.26226 18.3336 7.30875 17.9009 6.5183C17.4683 5.72786 16.6779 5.23727 15.0969 4.25612L13.4303 3.22174C11.7591 2.18459 10.9235 1.66602 10.0003 1.66602C9.07707 1.66602 8.24148 2.18459 6.57035 3.22174L4.90368 4.25612C3.32278 5.23727 2.53232 5.72786 2.09965 6.5183ZM7.8725 12.8306C7.5952 12.625 7.20376 12.6832 6.99821 12.9605C6.79267 13.2379 6.85084 13.6293 7.12815 13.8348C7.93849 14.4354 8.92949 14.791 10.0003 14.791C11.0711 14.791 12.0621 14.4354 12.8724 13.8348C13.1498 13.6293 13.2079 13.2379 13.0024 12.9605C12.7969 12.6832 12.4054 12.625 12.1281 12.8306C11.5211 13.2804 10.7885 13.541 10.0003 13.541C9.21207 13.541 8.47949 13.2804 7.8725 12.8306Z" fill="white"/>
</svg>
