<svg width="20" height="20" viewBox="0 0 20 20" fill="none" xmlns="http://www.w3.org/2000/svg">
<path d="M12.4419 2.08268V6.99935C12.4419 7.36602 12.0085 7.54935 11.7419 7.30768L10.2835 5.96602C10.1252 5.81602 9.87526 5.81602 9.71692 5.96602L8.25859 7.29935C7.99192 7.54935 7.55859 7.35768 7.55859 6.99935V2.08268C7.55859 1.84935 7.74192 1.66602 7.97526 1.66602H12.0252C12.2586 1.66602 12.4419 1.84935 12.4419 2.08268Z" fill="white"/>
<path d="M14.15 1.71641C13.9083 1.68308 13.6917 1.89141 13.6917 2.13308V7.14975C13.6917 7.78308 13.3167 8.35808 12.7333 8.61642C12.15 8.86642 11.475 8.75808 11.0083 8.32475L10.2833 7.65808C10.125 7.50808 9.88333 7.50808 9.71667 7.65808L8.99167 8.32475C8.69167 8.60808 8.3 8.74975 7.90833 8.74975C7.69167 8.74975 7.475 8.70808 7.26667 8.61642C6.68333 8.35808 6.30833 7.78308 6.30833 7.14975V2.13308C6.30833 1.89141 6.09167 1.68308 5.85 1.71641C3.51667 2.00808 2.5 3.58308 2.5 5.83308V14.1665C2.5 16.6665 3.75 18.3331 6.66667 18.3331H13.3333C16.25 18.3331 17.5 16.6665 17.5 14.1665V5.83308C17.5 3.58308 16.4833 2.00808 14.15 1.71641ZM14.5833 15.6248H7.5C7.15833 15.6248 6.875 15.3415 6.875 14.9998C6.875 14.6581 7.15833 14.3748 7.5 14.3748H14.5833C14.925 14.3748 15.2083 14.6581 15.2083 14.9998C15.2083 15.3415 14.925 15.6248 14.5833 15.6248ZM14.5833 12.2915H11.0417C10.7 12.2915 10.4167 12.0081 10.4167 11.6665C10.4167 11.3248 10.7 11.0415 11.0417 11.0415H14.5833C14.925 11.0415 15.2083 11.3248 15.2083 11.6665C15.2083 12.0081 14.925 12.2915 14.5833 12.2915Z" fill="white"/>
</svg>
