<svg width="20" height="20" viewBox="0 0 20 20" fill="none" xmlns="http://www.w3.org/2000/svg">
<path d="M14.7923 14.239C15.4933 15.3426 15.8236 15.9285 15.8236 16.5397C15.8236 17.7467 14.9271 18.332 13.7194 18.332C13.187 18.332 12.8434 18.3313 11.9749 17.8795C11.9749 17.8795 11.4122 17.3645 10.0952 17.4174C8.76609 17.3649 8.20301 17.886 8.20301 17.886C7.33451 18.3375 7.00315 18.3327 6.47147 18.3327C5.26377 18.3327 4.3666 17.7481 4.3666 16.5404C4.3666 15.9292 4.69796 15.344 5.39856 14.2396C5.39856 14.2396 6.72298 12.0402 7.87063 11.0056C8.69988 10.2589 9.90896 10.2616 9.90896 10.2616H10.2819C10.2819 10.2616 11.5439 10.2582 12.3213 11.0056C13.4334 12.0778 14.7923 14.239 14.7923 14.239ZM7.14478 8.79078C8.40743 8.79078 9.43086 7.19575 9.43086 5.2284C9.43086 3.26105 8.40743 1.66602 7.14478 1.66602C5.88212 1.66602 4.85869 3.26105 4.85869 5.2284C4.85869 7.19575 5.88212 8.79078 7.14478 8.79078ZM4.9539 12.2409C5.88451 11.8113 6.09677 10.2879 5.42757 8.83822C4.75836 7.38856 3.46159 6.56135 2.53098 6.99065C1.60037 7.41995 1.38845 8.94367 2.05731 10.3933C2.72652 11.843 4.02329 12.6699 4.9539 12.2409ZM12.4598 8.79078C13.7225 8.79078 14.7462 7.19575 14.7462 5.2284C14.7462 3.26105 13.7225 1.66602 12.4598 1.66602C11.1972 1.66602 10.1737 3.26105 10.1737 5.2284C10.1737 7.19575 11.1972 8.79078 12.4598 8.79078ZM17.074 6.99031C16.143 6.56067 14.8466 7.38788 14.1774 8.83788C13.5082 10.2879 13.7204 11.8113 14.6514 12.2409C15.5823 12.6702 16.8788 11.843 17.548 10.3933C18.2172 8.94367 18.0049 7.41995 17.074 6.99031Z" fill="white"/>
</svg>
