<svg width="20" height="20" viewBox="0 0 20 20" fill="none" xmlns="http://www.w3.org/2000/svg">
<path d="M6.3748 17.4255C6.3498 17.4255 6.31647 17.4422 6.29147 17.4422C4.6748 16.6422 3.35813 15.3172 2.5498 13.7005C2.5498 13.6755 2.56647 13.6422 2.56647 13.6172C3.58313 13.9172 4.63313 14.1422 5.6748 14.3172C5.85813 15.3672 6.0748 16.4089 6.3748 17.4255Z" fill="white"/>
<path d="M17.4502 13.7089C16.6252 15.3672 15.2502 16.7089 13.5752 17.5172C13.8918 16.4589 14.1585 15.3922 14.3335 14.3172C15.3835 14.1422 16.4168 13.9172 17.4335 13.6172C17.4252 13.6505 17.4502 13.6839 17.4502 13.7089Z" fill="white"/>
<path d="M17.5168 6.42408C16.4668 6.10742 15.4085 5.84908 14.3335 5.66575C14.1585 4.59075 13.9002 3.52408 13.5752 2.48242C15.3002 3.30742 16.6918 4.69908 17.5168 6.42408Z" fill="white"/>
<path d="M6.37507 2.57578C6.07507 3.59245 5.8584 4.62578 5.6834 5.67578C4.6084 5.84245 3.54173 6.10911 2.4834 6.42578C3.29173 4.75078 4.6334 3.37578 6.29173 2.55078C6.31673 2.55078 6.35007 2.57578 6.37507 2.57578Z" fill="white"/>
<path d="M12.9084 5.49102C10.9751 5.27435 9.02514 5.27435 7.0918 5.49102C7.30014 4.34935 7.5668 3.20768 7.9418 2.10768C7.95847 2.04102 7.95014 1.99102 7.95847 1.92435C8.6168 1.76602 9.2918 1.66602 10.0001 1.66602C10.7001 1.66602 11.3834 1.76602 12.0334 1.92435C12.0418 1.99102 12.0418 2.04102 12.0584 2.10768C12.4334 3.21602 12.7001 4.34935 12.9084 5.49102Z" fill="white"/>
<path d="M5.49199 12.9084C4.34199 12.7001 3.20865 12.4334 2.10865 12.0584C2.04199 12.0418 1.99199 12.0501 1.92532 12.0418C1.76699 11.3834 1.66699 10.7084 1.66699 10.0001C1.66699 9.30014 1.76699 8.6168 1.92532 7.9668C1.99199 7.95847 2.04199 7.95847 2.10865 7.9418C3.21699 7.57514 4.34199 7.30014 5.49199 7.0918C5.28365 9.02514 5.28365 10.9751 5.49199 12.9084Z" fill="white"/>
<path d="M18.3328 10.0001C18.3328 10.7084 18.2328 11.3834 18.0745 12.0418C18.0078 12.0501 17.9578 12.0418 17.8911 12.0584C16.7828 12.4251 15.6495 12.7001 14.5078 12.9084C14.7245 10.9751 14.7245 9.02514 14.5078 7.0918C15.6495 7.30014 16.7911 7.5668 17.8911 7.9418C17.9578 7.95847 18.0078 7.9668 18.0745 7.9668C18.2328 8.62514 18.3328 9.30014 18.3328 10.0001Z" fill="white"/>
<path d="M12.9084 14.5078C12.7001 15.6578 12.4334 16.7911 12.0584 17.8911C12.0418 17.9578 12.0418 18.0078 12.0334 18.0745C11.3834 18.2328 10.7001 18.3328 10.0001 18.3328C9.2918 18.3328 8.6168 18.2328 7.95847 18.0745C7.95014 18.0078 7.95847 17.9578 7.9418 17.8911C7.57514 16.7828 7.30014 15.6578 7.0918 14.5078C8.05847 14.6161 9.02514 14.6911 10.0001 14.6911C10.9751 14.6911 11.9501 14.6161 12.9084 14.5078Z" fill="white"/>
<path d="M13.1364 13.1355C11.0521 13.3984 8.94846 13.3984 6.86421 13.1355C6.60125 11.0512 6.60125 8.94749 6.86421 6.86324C8.94846 6.60027 11.0521 6.60027 13.1364 6.86324C13.3994 8.94749 13.3994 11.0512 13.1364 13.1355Z" fill="white"/>
</svg>
