<svg width="20" height="20" viewBox="0 0 20 20" fill="none" xmlns="http://www.w3.org/2000/svg">
<path fill-rule="evenodd" clip-rule="evenodd" d="M1.66684 12.3365V17.709C1.66684 18.054 1.94684 18.334 2.29184 18.334H3.63684C3.78485 18.334 3.92807 18.2815 4.041 18.1858C4.15393 18.0901 4.22923 17.9575 4.25351 17.8115L4.58351 15.834H15.4168L15.746 17.8115C15.7703 17.9575 15.8456 18.0901 15.9585 18.1858C16.0714 18.2815 16.2147 18.334 16.3627 18.334H17.7085C17.8743 18.334 18.0332 18.2681 18.1504 18.1509C18.2677 18.0337 18.3335 17.8747 18.3335 17.709V12.3365C18.3336 11.3568 18.0436 10.3991 17.5002 9.58398L16.8502 8.60898C16.7922 8.52218 16.7425 8.43011 16.7018 8.33398H17.5302C17.6463 8.33398 17.7601 8.30162 17.8589 8.24053C17.9577 8.17945 18.0375 8.09205 18.0893 7.98815L18.2977 7.57148C18.3452 7.47626 18.3676 7.37047 18.3629 7.26415C18.3581 7.15783 18.3262 7.05449 18.2703 6.96394C18.2143 6.87338 18.1362 6.7986 18.0433 6.74669C17.9504 6.69478 17.8458 6.66746 17.7393 6.66732H16.3335L16.0752 5.37898C15.9966 4.98661 15.8066 4.62518 15.5281 4.3379C15.2495 4.05061 14.8941 3.84963 14.5043 3.75898C13.286 3.47565 11.7843 3.33398 10.0002 3.33398C8.21517 3.33398 6.71434 3.47565 5.49601 3.75898C5.10609 3.84949 4.7505 4.05041 4.47178 4.3377C4.19306 4.625 4.003 4.98651 3.92434 5.37898L3.66601 6.66732H2.26184C2.15541 6.66746 2.05078 6.69478 1.95787 6.74669C1.86495 6.7986 1.78683 6.87338 1.73091 6.96394C1.67499 7.05449 1.64313 7.15783 1.63833 7.26415C1.63353 7.37047 1.65597 7.47626 1.70351 7.57148L1.91184 7.98815C1.96365 8.09193 2.04331 8.17924 2.14192 8.24032C2.24053 8.30139 2.35418 8.33383 2.47017 8.33398H3.29934C3.25862 8.4301 3.20896 8.52217 3.15101 8.60898L2.50017 9.58398C1.95684 10.399 1.66684 11.3565 1.66684 12.3365ZM14.9677 8.33732C15.0251 8.62554 15.1204 8.90491 15.251 9.16815H4.74934C4.88017 8.90565 4.97517 8.62648 5.03267 8.33732L5.55934 5.70648C5.57489 5.62783 5.6128 5.55533 5.66852 5.49768C5.72425 5.44003 5.79542 5.39969 5.87351 5.38148C6.95517 5.13148 8.33351 5.00065 10.0002 5.00065C11.6668 5.00065 13.0452 5.13065 14.1268 5.38232C14.205 5.40032 14.2762 5.44048 14.3321 5.49797C14.388 5.55547 14.4261 5.62787 14.4418 5.70648L14.9677 8.33732ZM4.58351 13.334C4.91503 13.334 5.23297 13.2023 5.46739 12.9679C5.70181 12.7334 5.83351 12.4155 5.83351 12.084C5.83351 11.7525 5.70181 11.4345 5.46739 11.2001C5.23297 10.9657 4.91503 10.834 4.58351 10.834C4.25199 10.834 3.93404 10.9657 3.69962 11.2001C3.4652 11.4345 3.33351 11.7525 3.33351 12.084C3.33351 12.4155 3.4652 12.7334 3.69962 12.9679C3.93404 13.2023 4.25199 13.334 4.58351 13.334ZM16.6668 12.084C16.6668 12.4155 16.5351 12.7334 16.3007 12.9679C16.0663 13.2023 15.7484 13.334 15.4168 13.334C15.0853 13.334 14.7674 13.2023 14.533 12.9679C14.2985 12.7334 14.1668 12.4155 14.1668 12.084C14.1668 11.7525 14.2985 11.4345 14.533 11.2001C14.7674 10.9657 15.0853 10.834 15.4168 10.834C15.7484 10.834 16.0663 10.9657 16.3007 11.2001C16.5351 11.4345 16.6668 11.7525 16.6668 12.084Z" fill="white"/>
</svg>
