<svg width="20" height="20" viewBox="0 0 20 20" fill="none" xmlns="http://www.w3.org/2000/svg">
<path d="M13.4919 1.66602H6.50865C3.47532 1.66602 1.66699 3.47435 1.66699 6.50768V13.4827C1.66699 16.5244 3.47532 18.3327 6.50865 18.3327H13.4836C16.5169 18.3327 18.3253 16.5244 18.3253 13.491V6.50768C18.3336 3.47435 16.5253 1.66602 13.4919 1.66602ZM15.0003 10.6244H10.6253V14.9994C10.6253 15.341 10.3419 15.6244 10.0003 15.6244C9.65865 15.6244 9.37532 15.341 9.37532 14.9994V10.6244H5.00032C4.65865 10.6244 4.37532 10.341 4.37532 9.99935C4.37532 9.65768 4.65865 9.37435 5.00032 9.37435H9.37532V4.99935C9.37532 4.65768 9.65865 4.37435 10.0003 4.37435C10.3419 4.37435 10.6253 4.65768 10.6253 4.99935V9.37435H15.0003C15.3419 9.37435 15.6253 9.65768 15.6253 9.99935C15.6253 10.341 15.3419 10.6244 15.0003 10.6244Z" fill="white"/>
</svg>
