<svg width="20" height="20" viewBox="0 0 20 20" fill="none" xmlns="http://www.w3.org/2000/svg">
<path d="M11.7744 9.44946C12.0994 8.08279 10.9078 6.89112 9.54112 7.21612C8.89945 7.37446 8.37445 7.89946 8.21612 8.54112C7.89112 9.90779 9.08279 11.0995 10.4494 10.7745C11.0994 10.6161 11.6244 10.0911 11.7744 9.44946Z" fill="white"/>
<path d="M5.01647 14.9744C4.86647 14.9744 4.70813 14.916 4.59147 14.8077C2.9748 13.3077 2.0498 11.191 2.0498 8.99102C2.0498 4.60768 5.61648 1.04102 9.99975 1.04102C14.3832 1.04102 17.9498 4.60768 17.9498 8.99102C17.9498 11.2077 17.0582 13.2577 15.4415 14.7827C15.1915 15.016 14.7915 15.0077 14.5582 14.7577C14.3248 14.5077 14.3332 14.1077 14.5832 13.8744C15.9498 12.591 16.6999 10.866 16.6999 8.99935C16.6999 5.30768 13.6915 2.29935 9.99975 2.29935C6.30813 2.29935 3.2998 5.30768 3.2998 8.99935C3.2998 10.8827 4.05813 12.616 5.44147 13.8994C5.69147 14.1327 5.70813 14.5327 5.4748 14.7827C5.3498 14.9077 5.18313 14.9744 5.01647 14.9744Z" fill="white"/>
<path d="M13.3335 12.7507C13.1835 12.7507 13.0252 12.6924 12.9085 12.5841C12.6585 12.3507 12.6419 11.9507 12.8835 11.7007C13.5752 10.9674 13.9585 10.0007 13.9585 9.00078C13.9585 6.81745 12.1835 5.05078 10.0085 5.05078C7.83359 5.05078 6.05859 6.82578 6.05859 9.00078C6.05859 10.0091 6.44192 10.9674 7.13359 11.7007C7.36692 11.9507 7.35859 12.3507 7.10859 12.5841C6.85859 12.8257 6.45859 12.8091 6.22526 12.5591C5.31692 11.5924 4.80859 10.3257 4.80859 9.00078C4.80859 6.13411 7.14192 3.80078 10.0085 3.80078C12.8752 3.80078 15.2085 6.13411 15.2085 9.00078C15.2085 10.3257 14.7085 11.5924 13.7919 12.5591C13.6669 12.6841 13.5002 12.7507 13.3335 12.7507Z" fill="white"/>
<path d="M8.5834 13.8833L7.3834 15.375C6.4334 16.5667 7.2834 18.3333 8.80006 18.3333H11.1917C12.7167 18.3333 13.5667 16.5667 12.6084 15.3833L11.4084 13.8917C10.6917 12.975 9.3084 12.975 8.5834 13.8833Z" fill="white"/>
</svg>
