<svg width="20" height="20" viewBox="0 0 20 20" fill="none" xmlns="http://www.w3.org/2000/svg">
<path fill-rule="evenodd" clip-rule="evenodd" d="M2.09941 6.51891C1.66675 7.30936 1.66675 8.26287 1.66675 10.1699V11.4375C1.66675 14.6881 1.66675 16.3135 2.64306 17.3234C3.61937 18.3333 5.19071 18.3333 8.33341 18.3333H11.6667C14.8094 18.3333 16.3808 18.3333 17.3571 17.3234C18.3334 16.3135 18.3334 14.6881 18.3334 11.4375V10.1699C18.3334 8.26287 18.3334 7.30936 17.9007 6.51891C17.4681 5.72847 16.6777 5.23788 15.0967 4.25673L13.4301 3.22235C11.7589 2.1852 10.9233 1.66663 10.0001 1.66663C9.07683 1.66663 8.24124 2.1852 6.57011 3.22235L4.90344 4.25673C3.32254 5.23788 2.53208 5.72847 2.09941 6.51891ZM7.87226 12.8312C7.59496 12.6256 7.20352 12.6838 6.99797 12.9611C6.79243 13.2385 6.8506 13.6299 7.12791 13.8354C7.93825 14.436 8.92925 14.7916 10.0001 14.7916C11.0709 14.7916 12.0619 14.436 12.8722 13.8354C13.1496 13.6299 13.2077 13.2385 13.0022 12.9611C12.7967 12.6838 12.4052 12.6256 12.1279 12.8312C11.5209 13.281 10.7883 13.5416 10.0001 13.5416C9.21183 13.5416 8.47925 13.281 7.87226 12.8312Z" fill="#0F0F0F"/>
</svg>
