<svg width="20" height="20" viewBox="0 0 20 20" fill="none" xmlns="http://www.w3.org/2000/svg">
<path d="M18.3334 6.50829V10.4166H14.9334C14.8334 10.4083 14.6167 10.2833 14.5667 10.1916L13.7001 8.54996C13.3584 7.89996 12.7667 7.53329 12.1334 7.56663C11.5001 7.59996 10.9584 8.02496 10.6834 8.71663L9.53341 11.6L9.36675 11.1666C8.95841 10.1083 7.79175 9.30829 6.64175 9.30829L1.66675 9.33329V6.50829C1.66675 3.47496 3.47508 1.66663 6.50841 1.66663H13.4917C16.5251 1.66663 18.3334 3.47496 18.3334 6.50829Z" fill="#0F0F0F"/>
<path d="M18.3334 13.4916V11.6666H14.9334C14.3751 11.6666 13.7167 11.2666 13.4584 10.775L12.5917 9.13329C12.3584 8.69162 12.0251 8.71662 11.8417 9.17496L9.92508 14.0166C9.71675 14.5583 9.36675 14.5583 9.15008 14.0166L8.20008 11.6166C7.97508 11.0333 7.27508 10.5583 6.65008 10.5583L1.66675 10.5833V13.4916C1.66675 16.475 3.41675 18.275 6.35841 18.325C6.45008 18.3333 6.55008 18.3333 6.64175 18.3333H13.3084C13.4334 18.3333 13.5584 18.3333 13.6751 18.325C16.6001 18.2583 18.3334 16.4666 18.3334 13.4916Z" fill="#0F0F0F"/>
<path d="M1.6666 10.5833V13.3416C1.64993 13.0749 1.6416 12.7916 1.6416 12.4999V10.5833H1.6666Z" fill="#0F0F0F"/>
</svg>
