<svg width="20" height="20" viewBox="0 0 20 20" fill="none" xmlns="http://www.w3.org/2000/svg">
<path d="M14.7921 14.2396C15.4931 15.3432 15.8234 15.9291 15.8234 16.5403C15.8234 17.7473 14.9269 18.3326 13.7192 18.3326C13.1868 18.3326 12.8432 18.3319 11.9747 17.8801C11.9747 17.8801 11.412 17.3651 10.095 17.418C8.76585 17.3655 8.20277 17.8866 8.20277 17.8866C7.33427 18.3381 7.00291 18.3333 6.47123 18.3333C5.26353 18.3333 4.36636 17.7487 4.36636 16.541C4.36636 15.9298 4.69772 15.3446 5.39832 14.2402C5.39832 14.2402 6.72274 12.0408 7.87039 11.0062C8.69964 10.2595 9.90872 10.2622 9.90872 10.2622H10.2817C10.2817 10.2622 11.5437 10.2588 12.3211 11.0062C13.4332 12.0784 14.7921 14.2399 14.7921 14.2396ZM7.14454 8.79139C8.40719 8.79139 9.43062 7.19636 9.43062 5.22901C9.43062 3.26166 8.40719 1.66663 7.14454 1.66663C5.88188 1.66663 4.85845 3.26166 4.85845 5.22901C4.85845 7.19636 5.88188 8.79139 7.14454 8.79139ZM4.95366 12.2415C5.88427 11.8119 6.09653 10.2885 5.42733 8.83883C4.75812 7.38917 3.46135 6.56196 2.53074 6.99126C1.60013 7.42056 1.38821 8.94428 2.05707 10.3939C2.72628 11.8436 4.02305 12.6705 4.95366 12.2415ZM12.4596 8.79139C13.7223 8.79139 14.746 7.19636 14.746 5.22901C14.746 3.26166 13.7223 1.66663 12.4596 1.66663C11.197 1.66663 10.1735 3.26166 10.1735 5.22901C10.1735 7.19636 11.197 8.79139 12.4596 8.79139ZM17.0738 6.99092C16.1428 6.56128 14.8464 7.38849 14.1772 8.83849C13.508 10.2885 13.7202 11.8119 14.6512 12.2415C15.5821 12.6708 16.8786 11.8436 17.5478 10.3939C18.217 8.94428 18.0047 7.42056 17.0738 6.99092Z" fill="#030104"/>
</svg>
