<svg width="20" height="20" viewBox="0 0 20 20" fill="none" xmlns="http://www.w3.org/2000/svg">
<path fill-rule="evenodd" clip-rule="evenodd" d="M1.66684 12.3359V17.7084C1.66684 18.0534 1.94684 18.3334 2.29184 18.3334H3.63684C3.78485 18.3334 3.92807 18.2809 4.041 18.1852C4.15393 18.0895 4.22923 17.9569 4.25351 17.8109L4.58351 15.8334H15.4168L15.746 17.8109C15.7703 17.9569 15.8456 18.0895 15.9585 18.1852C16.0714 18.2809 16.2147 18.3334 16.3627 18.3334H17.7085C17.8743 18.3334 18.0332 18.2675 18.1504 18.1503C18.2677 18.0331 18.3335 17.8741 18.3335 17.7084V12.3359C18.3336 11.3562 18.0436 10.3985 17.5002 9.58337L16.8502 8.60837C16.7922 8.52157 16.7425 8.4295 16.7018 8.33337H17.5302C17.6463 8.33337 17.7601 8.30101 17.8589 8.23992C17.9577 8.17884 18.0375 8.09144 18.0893 7.98754L18.2977 7.57087C18.3452 7.47565 18.3676 7.36986 18.3629 7.26354C18.3581 7.15722 18.3262 7.05388 18.2703 6.96333C18.2143 6.87277 18.1362 6.79799 18.0433 6.74608C17.9504 6.69417 17.8458 6.66685 17.7393 6.66671H16.3335L16.0752 5.37837C15.9966 4.986 15.8066 4.62457 15.5281 4.33729C15.2495 4.05 14.8941 3.84902 14.5043 3.75837C13.286 3.47504 11.7843 3.33337 10.0002 3.33337C8.21517 3.33337 6.71434 3.47504 5.49601 3.75837C5.10609 3.84888 4.7505 4.0498 4.47178 4.33709C4.19306 4.62439 4.003 4.9859 3.92434 5.37837L3.66601 6.66671H2.26184C2.15541 6.66685 2.05078 6.69417 1.95787 6.74608C1.86495 6.79799 1.78683 6.87277 1.73091 6.96333C1.67499 7.05388 1.64313 7.15722 1.63833 7.26354C1.63353 7.36986 1.65597 7.47565 1.70351 7.57087L1.91184 7.98754C1.96365 8.09132 2.04331 8.17863 2.14192 8.23971C2.24053 8.30078 2.35418 8.33322 2.47017 8.33337H3.29934C3.25862 8.42949 3.20896 8.52156 3.15101 8.60837L2.50017 9.58337C1.95684 10.3984 1.66684 11.3559 1.66684 12.3359ZM14.9677 8.33671C15.0251 8.62493 15.1204 8.9043 15.251 9.16754H4.74934C4.88017 8.90504 4.97517 8.62587 5.03267 8.33671L5.55934 5.70587C5.57489 5.62722 5.6128 5.55472 5.66852 5.49707C5.72425 5.43942 5.79542 5.39908 5.87351 5.38087C6.95517 5.13087 8.33351 5.00004 10.0002 5.00004C11.6668 5.00004 13.0452 5.13004 14.1268 5.38171C14.205 5.39971 14.2762 5.43987 14.3321 5.49736C14.388 5.55486 14.4261 5.62726 14.4418 5.70587L14.9677 8.33671ZM4.58351 13.3334C4.91503 13.3334 5.23297 13.2017 5.46739 12.9673C5.70181 12.7328 5.83351 12.4149 5.83351 12.0834C5.83351 11.7519 5.70181 11.4339 5.46739 11.1995C5.23297 10.9651 4.91503 10.8334 4.58351 10.8334C4.25199 10.8334 3.93404 10.9651 3.69962 11.1995C3.4652 11.4339 3.33351 11.7519 3.33351 12.0834C3.33351 12.4149 3.4652 12.7328 3.69962 12.9673C3.93404 13.2017 4.25199 13.3334 4.58351 13.3334ZM16.6668 12.0834C16.6668 12.4149 16.5351 12.7328 16.3007 12.9673C16.0663 13.2017 15.7484 13.3334 15.4168 13.3334C15.0853 13.3334 14.7674 13.2017 14.533 12.9673C14.2985 12.7328 14.1668 12.4149 14.1668 12.0834C14.1668 11.7519 14.2985 11.4339 14.533 11.1995C14.7674 10.9651 15.0853 10.8334 15.4168 10.8334C15.7484 10.8334 16.0663 10.9651 16.3007 11.1995C16.5351 11.4339 16.6668 11.7519 16.6668 12.0834Z" fill="black"/>
</svg>
