<svg width="20" height="20" viewBox="0 0 20 20" fill="none" xmlns="http://www.w3.org/2000/svg">
<path d="M13.4917 1.66663H6.50841C3.47508 1.66663 1.66675 3.47496 1.66675 6.50829V13.4833C1.66675 16.525 3.47508 18.3333 6.50841 18.3333H13.4834C16.5167 18.3333 18.3251 16.525 18.3251 13.4916V6.50829C18.3334 3.47496 16.5251 1.66663 13.4917 1.66663ZM15.0001 10.625H10.6251V15C10.6251 15.3416 10.3417 15.625 10.0001 15.625C9.65841 15.625 9.37508 15.3416 9.37508 15V10.625H5.00008C4.65841 10.625 4.37508 10.3416 4.37508 9.99996C4.37508 9.65829 4.65841 9.37496 5.00008 9.37496H9.37508V4.99996C9.37508 4.65829 9.65841 4.37496 10.0001 4.37496C10.3417 4.37496 10.6251 4.65829 10.6251 4.99996V9.37496H15.0001C15.3417 9.37496 15.6251 9.65829 15.6251 9.99996C15.6251 10.3416 15.3417 10.625 15.0001 10.625Z" fill="#0F0F0F"/>
</svg>
