<svg width="20" height="20" viewBox="0 0 20 20" fill="none" xmlns="http://www.w3.org/2000/svg">
<path d="M10.0013 1.66797C5.40964 1.66797 1.66797 5.40964 1.66797 10.0013C1.66797 14.593 5.40964 18.3346 10.0013 18.3346C14.593 18.3346 18.3346 14.593 18.3346 10.0013C18.3346 5.40964 14.593 1.66797 10.0013 1.66797ZM13.9846 8.08464L9.25963 12.8096C9.14297 12.9263 8.98464 12.993 8.81797 12.993C8.6513 12.993 8.49297 12.9263 8.3763 12.8096L6.01797 10.4513C5.7763 10.2096 5.7763 9.80963 6.01797 9.56797C6.25964 9.3263 6.65964 9.3263 6.9013 9.56797L8.81797 11.4846L13.1013 7.2013C13.343 6.95964 13.743 6.95964 13.9846 7.2013C14.2263 7.44297 14.2263 7.83464 13.9846 8.08464Z" fill="#1EC756"/>
</svg>
